<svg xmlns="http://www.w3.org/2000/svg" version="1.1" viewBox="21.2 13.2 18.96 18.3">
  <g id="night" transform="translate(-16,-8)">
    <g transform="matrix(.8 0 0 .78534 36 20.022)" stroke-width="1.2616">
      <g class="animate-star2">
        <polygon points="4 2.7 5.2 3.3 4 4 3.3 5.2 2.7 4 1.5 3.3 2.7 2.7 3.3 1.5" fill="#FFAC32"
          stroke-miterlimit="10" stroke-width="1.4105" />
      </g>
      <g class="animate-star1">
        <polygon transform="translate(20,10)"
          points="4 2.7 5.2 3.3 4 4 3.3 5.2 2.7 4 1.5 3.3 2.7 2.7 3.3 1.5" fill="#FFAC32"
          stroke-miterlimit="10" stroke-width="1.4105" />
      </g>
      <g class="animate-moon">
        <path
          d="m14.5 13.2c0-3.7 2-6.9 5-8.7-1.5-0.9-3.2-1.3-5-1.3-5.5 0-10 4.5-10 10s4.5 10 10 10c1.8 0 3.5-0.5 5-1.3-3-1.7-5-5-5-8.7z"
          fill="#FFAC32" stroke="#FFAC32" stroke-linejoin="round" stroke-width="2.5232" />
      </g>
    </g>
  </g>
</svg>