<svg width="56" height="48" version="1.1" xmlns="http://www.w3.org/2000/svg">
  <g id="cloudy" transform="translate(16,-2)">
    <g class="animate-cloud1"
    >
      <path transform="matrix(.6 0 0 .6 -10 -8)"
        d="m47.7 35.4c0-4.6-3.7-8.2-8.2-8.2-1 0-1.9 0.2-2.8 0.5-0.3-3.4-3.1-6.2-6.6-6.2-3.7 0-6.7 3-6.7 6.7 0 0.8 0.2 1.6 0.4 2.3-0.3-0.1-0.7-0.1-1-0.1-3.7 0-6.7 3-6.7 6.7 0 3.6 2.9 6.6 6.5 6.7h17.2c4.4-0.5 7.9-4 7.9-8.4z"
        fill="#48484A" stroke="transparent" stroke-linejoin="round" stroke-width="1.2" />
    </g>
    <g class="animate-cloud2"
    >
      <path transform="translate(-20,-11)"
        d="m47.7 35.4c0-4.6-3.7-8.2-8.2-8.2-1 0-1.9 0.2-2.8 0.5-0.3-3.4-3.1-6.2-6.6-6.2-3.7 0-6.7 3-6.7 6.7 0 0.8 0.2 1.6 0.4 2.3-0.3-0.1-0.7-0.1-1-0.1-3.7 0-6.7 3-6.7 6.7 0 3.6 2.9 6.6 6.5 6.7h17.2c4.4-0.5 7.9-4 7.9-8.4z"
        fill="#9CD5F2" stroke="transparent" stroke-linejoin="round" stroke-width="1.2" />
    </g>
  </g>
</svg>