<svg xmlns="http://www.w3.org/2000/svg" version="1.1" viewBox="3 1 41.3 42.57">

  <g transform="translate(16,-2)">
    <g transform="translate(0,16)">
      <g class="animate-sun">
        <line transform="translate(0,9)" y2="3" stroke="#FFAC32" stroke-linecap="round"
          stroke-width="2" fifll="none" />
        <g transform="rotate(45)">
          <line transform="translate(0,9)" y2="3" fill="none" stroke="#FFAC32"
            stroke-linecap="round" stroke-width="2" />
        </g>
        <g transform="rotate(90)">
          <line transform="translate(0,9)" y2="3" fill="none" stroke="#FFAC32"
            stroke-linecap="round" stroke-width="2" />
        </g>
        <g transform="rotate(135)">
          <line transform="translate(0,9)" y2="3" fill="none" stroke="#FFAC32"
            stroke-linecap="round" stroke-width="2" />
        </g>
        <g transform="scale(-1)">
          <line transform="translate(0,9)" y2="3" fill="none" stroke="#FFAC32"
            stroke-linecap="round" stroke-width="2" />
        </g>
        <g transform="rotate(225)">
          <line transform="translate(0,9)" y2="3" fill="none" stroke="#FFAC32"
            stroke-linecap="round" stroke-width="2" />
        </g>
        <g transform="rotate(-90)">
          <line transform="translate(0,9)" y2="3" fill="none" stroke="#FFAC32"
            stroke-linecap="round" stroke-width="2" />
        </g>
        <g transform="rotate(-45)">
          <line transform="translate(0,9)" y2="3" fill="none" stroke="#FFAC32"
            stroke-linecap="round" stroke-width="2" />
        </g>
        <circle r="5" fill="#FFAC32" stroke="#FFAC32" stroke-width="2" />
      </g>
    </g>
    <g class="animate-cloud1">
      <path transform="translate(-20,-11)"
        d="m47.7 35.4c0-4.6-3.7-8.2-8.2-8.2-1 0-1.9 0.2-2.8 0.5-0.3-3.4-3.1-6.2-6.6-6.2-3.7 0-6.7 3-6.7 6.7 0 0.8 0.2 1.6 0.4 2.3-0.3-0.1-0.7-0.1-1-0.1-3.7 0-6.7 3-6.7 6.7 0 3.6 2.9 6.6 6.5 6.7h17.2c4.4-0.5 7.9-4 7.9-8.4z"
        fill="#9CD5F2" stroke="transparent" stroke-linejoin="round" stroke-width="1.2" />
    </g>
    <g transform="translate(-20,-10) rotate(10,-247.39,200.17)" fill="none" stroke="#B3EAF2"
      stroke-dasharray="4, 4" stroke-linecap="round" stroke-width="2">
      <line class="animate-rain1" transform="translate(-4,1)" y2="8" />
      <line class="animate-rain2" transform="translate(0,-1)" y2="8" />
      <line class="animate-rain1" transform="translate(4)" y2="8" />
    </g>
  </g>
</svg>