<svg xmlns="http://www.w3.org/2000/svg" version="1.1" viewBox="11.5 3.2 40.66 34.9">

  <g transform="translate(16,-2)">
    <g transform="matrix(.8 0 0 .8 16 4)">
      <g class="animate-star1">
        <polygon points="4 4 3.3 5.2 2.7 4 1.5 3.3 2.7 2.7 3.3 1.5 4 2.7 5.2 3.3" fill="#FFAC32"
          stroke-miterlimit="10" />
      </g>
      <g class="animate-star2">
        <polygon transform="translate(20,10)"
          points="4 4 3.3 5.2 2.7 4 1.5 3.3 2.7 2.7 3.3 1.5 4 2.7 5.2 3.3" fill="#FFAC32"
          stroke-miterlimit="10" />
      </g>
      <g class="animate-moon">
        <path
          d="m14.5 13.2c0-3.7 2-6.9 5-8.7-1.5-0.9-3.2-1.3-5-1.3-5.5 0-10 4.5-10 10s4.5 10 10 10c1.8 0 3.5-0.5 5-1.3-3-1.7-5-5-5-8.7z"
          fill="#FFAC32" stroke="#FFAC32" stroke-linejoin="round" stroke-width="2" />
      </g>
    </g>
    <g class="animate-cloud1">
      <path transform="translate(-20,-11)"
        d="m47.7 35.4c0-4.6-3.7-8.2-8.2-8.2-1 0-1.9 0.2-2.8 0.5-0.3-3.4-3.1-6.2-6.6-6.2-3.7 0-6.7 3-6.7 6.7 0 0.8 0.2 1.6 0.4 2.3-0.3-0.1-0.7-0.1-1-0.1-3.7 0-6.7 3-6.7 6.7 0 3.6 2.9 6.6 6.5 6.7h17.2c4.4-0.5 7.9-4 7.9-8.4z"
        fill="#9CD5F2" stroke="transparent" stroke-linejoin="round" stroke-width="1.2" />
    </g>
    <g class="animate-snow1">
      <g transform="translate(7,28)" fill="none" stroke="#9CD5F2" stroke-linecap="round">
        <line transform="translate(0,9)" y1="-2.5" y2="2.5" stroke-width="1.2" />
        <line transform="rotate(45,-10.864,4.5)" y1="-2.5" y2="2.5" />
        <line transform="rotate(90,-4.5,4.5)" y1="-2.5" y2="2.5" />
        <line transform="rotate(135,-1.864,4.5)" y1="-2.5" y2="2.5" />
      </g>
    </g>
    <g class="animate-snow2">
      <g transform="translate(16,28)" fill="none" stroke="#9CD5F2" stroke-linecap="round">
        <line transform="translate(0,9)" y1="-2.5" y2="2.5" stroke-width="1.2" />
        <line transform="rotate(45,-10.864,4.5)" y1="-2.5" y2="2.5" />
        <line transform="rotate(90,-4.5,4.5)" y1="-2.5" y2="2.5" />
        <line transform="rotate(135,-1.864,4.5)" y1="-2.5" y2="2.5" />
      </g>
    </g>
  </g>
</svg>