<svg width="56" height="48" version="1.1" xmlns="http://www.w3.org/2000/svg">

  <g transform="translate(16,-2)">
    <g transform="matrix(.8 0 0 .8 16 4)">
      <g class="animate-star1"
      >
        <polygon points="4 4 3.3 5.2 2.7 4 1.5 3.3 2.7 2.7 3.3 1.5 4 2.7 5.2 3.3" fill="#ffc04a"
          stroke-miterlimit="10" />
      </g>
      <g class="animate-star2"
      >
        <polygon transform="translate(20,10)"
          points="4 4 3.3 5.2 2.7 4 1.5 3.3 2.7 2.7 3.3 1.5 4 2.7 5.2 3.3"
          fill="#ffc04a" stroke-miterlimit="10" />
      </g>
      <g class="animate-moon"
      >
        <path
          d="m14.5 13.2c0-3.7 2-6.9 5-8.7-1.5-0.9-3.2-1.3-5-1.3-5.5 0-10 4.5-10 10s4.5 10 10 10c1.8 0 3.5-0.5 5-1.3-3-1.7-5-5-5-8.7z"
          fill="#ffc04a" stroke="#ffc04a" stroke-linejoin="round" stroke-width="2" />
      </g>
    </g>
    <g class="animate-fog" transform="translate(-10,20)" fill="none" stroke="#9CD5F2"
      stroke-linecap="round"
      stroke-width="2">
      <line class="animate-fog1" y1="0" y2="0" x1="1" x2="37" stroke-dasharray="3, 5, 17, 5, 7" />
      <line class="animate-fog2" y1="5" y2="5" x1="9" x2="33" stroke-dasharray="11, 7, 15" />
      <line class="animate-fog3" y1="10" y2="10" x1="5" x2="40"
        stroke-dasharray="11, 7, 3, 5, 9" />
      <line class="animate-fog4" y1="15" y2="15" x1="7" x2="42"
        stroke-dasharray="13, 5, 9, 5, 3" />
    </g>
  </g>
</svg>