<svg width="105" height="84" viewBox="0 0 105 84" fill="none" xmlns="http://www.w3.org/2000/svg">
  <path d="M98.4157 22.5068C98.4323 22.265 98.4406 22.0241 98.4407 21.7841C98.4399 19.2309 97.5102 16.7741 95.8408 14.9138C94.1714 13.0535 91.8879 11.9295 89.4553 11.7708C88.2731 8.50938 86.2232 5.67125 83.5485 3.59269C80.8738 1.51412 77.6863 0.28223 74.3637 0.0429736C71.0411 -0.196283 67.7227 0.567121 64.8015 2.24274C61.8804 3.91835 59.4791 6.43595 57.882 9.49725C57.3691 9.43539 56.8533 9.40382 56.3371 9.40269C54.2714 9.39564 52.2299 9.8691 50.3602 10.7889C48.4904 11.7087 46.8389 13.0519 45.5249 14.7215C45.3115 14.993 45.179 15.3241 45.1438 15.6738C45.1086 16.0235 45.1722 16.3763 45.3268 16.6884C45.4814 17.0006 45.7202 17.2582 46.0134 17.4294C46.3066 17.6006 46.6414 17.6777 46.9761 17.6513C47.1568 17.6373 47.3501 17.6382 47.5323 17.6391C51.812 17.6484 55.9989 18.946 59.5945 21.3774C63.19 23.8088 66.0427 27.2715 67.8126 31.3531C67.9734 31.7244 68.2501 32.0273 68.5972 32.2119C68.9443 32.3964 69.341 32.4517 69.7221 32.3685C72.7204 31.7167 75.8307 31.9172 78.7301 32.9493C81.6295 33.9813 84.2125 35.8072 86.2109 38.2377C86.3717 38.4347 86.5713 38.5928 86.7961 38.7012C87.0208 38.8097 87.2653 38.8658 87.5128 38.8657H101.131C101.43 38.8657 101.724 38.7837 101.983 38.6279C102.243 38.472 102.459 38.2477 102.61 37.9773C103.558 36.2758 104.059 34.3408 104.06 32.3703C104.051 30.3468 103.523 28.3631 102.53 26.6275C101.536 24.8918 100.115 23.4685 98.4157 22.5068Z" fill="#7CC9F2" />
  <path d="M93.614 48.2379C93.2827 42.9848 90.9504 38.0545 87.0915 34.4502C83.2326 30.8458 78.1371 28.8382 72.8418 28.8358C71.8675 28.8358 70.8945 28.9027 69.9295 29.0362C67.734 24.8272 64.4193 21.2972 60.3459 18.8304C56.2726 16.3635 51.5967 15.0542 46.8269 15.0448C46.5593 15.0448 46.2705 15.0465 46.086 15.062C40.8319 15.1939 35.7426 16.9123 31.4948 19.9888C27.247 23.0652 24.042 27.354 22.3057 32.2848C18.6695 32.3519 15.2046 33.8338 12.6554 36.4121C10.1062 38.9904 8.67591 42.4596 8.67168 46.0746C8.67195 46.6024 8.70305 47.1296 8.76481 47.6537C6.14575 48.9381 3.93841 50.9223 2.3903 53.3838C0.842183 55.8453 0.0144945 58.6867 3.77691e-05 61.5896C-0.00604968 64.321 0.723827 67.0042 2.11384 69.3605C2.26694 69.6189 2.48529 69.8332 2.74729 69.982C3.00929 70.1308 3.30585 70.2091 3.60761 70.209H23.1707C23.5838 70.209 23.9834 70.0624 24.2974 69.7956C24.6115 69.5288 24.8195 69.1593 24.8838 68.7537C25.3843 65.6127 26.996 62.7524 29.4288 60.6871C31.8616 58.6218 34.956 57.4871 38.1554 57.4871C41.3548 57.4871 44.4492 58.6218 46.882 60.6871C49.3149 62.7524 50.9265 65.6127 51.427 68.7537C51.4914 69.1593 51.6993 69.5288 52.0134 69.7956C52.3275 70.0624 52.727 70.209 53.1402 70.209H100.14C100.419 70.2091 100.694 70.1423 100.942 70.0142C101.189 69.8861 101.402 69.7005 101.562 69.4732C103.191 67.1639 104.064 64.4105 104.06 61.5896C104.048 58.5294 103.017 55.5593 101.127 53.1437C99.237 50.7279 96.595 49.0028 93.614 48.2379Z" fill="#9CD5F2" />
  <path d="M56.1759 69.6071C56.144 69.0167 56.0817 68.4283 55.9893 67.8441C55.3675 63.9594 53.3641 60.4216 50.3395 57.8673C47.3149 55.3131 43.4678 53.91 39.4902 53.9105C35.5127 53.911 31.6659 55.3151 28.642 57.8701C25.6182 60.4252 23.6157 63.9635 22.9949 67.8483C22.9031 68.4311 22.8411 69.0182 22.8092 69.6071C20.1682 70.5504 17.8854 72.2757 16.2717 74.548C14.658 76.8203 13.7918 79.5291 13.791 82.3057C13.791 82.7551 13.9715 83.186 14.2929 83.5038C14.6142 83.8215 15.05 84 15.5044 84H63.4806C63.935 84 64.3708 83.8215 64.6921 83.5038C65.0135 83.186 65.194 82.7551 65.194 82.3057C65.1933 79.5291 64.327 76.8203 62.7133 74.548C61.0996 72.2757 58.8168 70.5504 56.1759 69.6071Z" fill="#B2EBF2" />
</svg>
  