<svg width="82" height="84" viewBox="0 0 82 84" fill="none" xmlns="http://www.w3.org/2000/svg">
  <path d="M14.4179 58.3768C14.2908 58.3203 14.1538 58.2894 14.0148 58.286C13.8758 58.2826 13.7375 58.3068 13.6077 58.357C13.478 58.4073 13.3595 58.4828 13.2588 58.5791C13.1582 58.6754 13.0775 58.7906 13.0213 58.9183L7.80489 70.7024C7.69124 70.96 7.68425 71.2524 7.78544 71.5152C7.88664 71.778 8.08775 71.9897 8.34452 72.1037C8.60129 72.2178 8.89269 72.2248 9.15462 72.1232C9.41654 72.0217 9.62754 71.8199 9.74119 71.5623L14.9682 59.7676C15.078 59.5098 15.0818 59.2189 14.9787 58.9584C14.8757 58.6979 14.6741 58.4888 14.4179 58.3768ZM22.2584 58.3768C22.1313 58.3203 21.9943 58.2894 21.8552 58.286C21.7162 58.2826 21.5779 58.3068 21.4482 58.357C21.3185 58.4073 21.1999 58.4828 21.0993 58.5791C20.9986 58.6754 20.9179 58.7906 20.8617 58.9183L10.4395 82.5077C10.3833 82.6353 10.3526 82.7727 10.3492 82.9122C10.3459 83.0517 10.37 83.1904 10.4201 83.3205C10.4702 83.4507 10.5454 83.5696 10.6413 83.6706C10.7372 83.7716 10.852 83.8526 10.9792 83.9091C11.1063 83.9655 11.2433 83.9963 11.3823 83.9997C11.5213 84.003 11.6596 83.9789 11.7893 83.9286C11.919 83.8783 12.0375 83.8029 12.1381 83.7067C12.2388 83.6104 12.3196 83.4952 12.3758 83.3677L22.8297 59.7782C22.8852 59.6487 22.9143 59.5094 22.9155 59.3685C22.9168 59.2275 22.89 59.0878 22.8368 58.9573C22.7836 58.8269 22.7051 58.7084 22.6058 58.6087C22.5065 58.509 22.3884 58.4302 22.2584 58.3768ZM37.9498 58.3768C37.8227 58.3203 37.6857 58.2894 37.5467 58.286C37.4077 58.2826 37.2693 58.3068 37.1396 58.357C37.0099 58.4073 36.8913 58.4828 36.7907 58.5791C36.6901 58.6754 36.6094 58.7906 36.5531 58.9183L26.0887 82.5077C26.0324 82.6353 26.0017 82.7727 25.9984 82.9122C25.995 83.0517 26.0191 83.1904 26.0692 83.3205C26.1193 83.4507 26.1945 83.5696 26.2904 83.6706C26.3863 83.7716 26.5011 83.8526 26.6283 83.9091C26.7554 83.9655 26.8924 83.9963 27.0314 83.9997C27.1704 84.003 27.3087 83.9789 27.4384 83.9286C27.5681 83.8783 27.6866 83.8029 27.7873 83.7067C27.8879 83.6104 27.9687 83.4952 28.025 83.3677L38.4789 59.7782C38.5934 59.5219 38.602 59.2305 38.5028 58.9679C38.4037 58.7052 38.2048 58.4927 37.9498 58.3768ZM30.0988 58.3768C29.9717 58.3203 29.8347 58.2894 29.6957 58.286C29.5567 58.2826 29.4183 58.3068 29.2886 58.357C29.1589 58.4073 29.0403 58.4828 28.9397 58.5791C28.8391 58.6754 28.7583 58.7906 28.7021 58.9183L23.4752 70.7024C23.3615 70.96 23.3545 71.2524 23.4557 71.5152C23.5569 71.778 23.758 71.9897 24.0148 72.1037C24.2716 72.2178 24.563 72.2248 24.8249 72.1232C25.0868 72.0217 25.2978 71.8199 25.4115 71.5623L30.6384 59.7676C30.749 59.5111 30.7543 59.2213 30.6533 58.961C30.5523 58.7007 30.353 58.4908 30.0988 58.3768Z" fill="#B3E5FC" />
  <path d="M43.8379 44.2896C43.7085 44.252 43.5704 44.2352 43.4314 44.2403C43.2924 44.2454 43.1554 44.2722 43.0281 44.3192C42.9008 44.3661 42.7858 44.4324 42.6895 44.5141C42.5933 44.5958 42.5178 44.6914 42.4673 44.7954L37.7794 54.4007C37.6773 54.6106 37.6832 54.8421 37.7959 55.0442C37.9085 55.2463 38.1187 55.4024 38.3801 55.4782C38.6415 55.554 38.9327 55.5433 39.1898 55.4484C39.4468 55.3536 39.6486 55.1823 39.7507 54.9723L44.4487 45.3582C44.547 45.1483 44.538 44.9182 44.4235 44.718C44.3091 44.5178 44.0986 44.3638 43.8379 44.2896ZM51.6661 43.8523C51.5367 43.8147 51.3986 43.7979 51.2596 43.803C51.1207 43.8081 50.9836 43.8348 50.8563 43.8818C50.729 43.9288 50.614 43.9951 50.5178 44.0768C50.4216 44.1585 50.346 44.2541 50.2956 44.3581L40.9312 63.5847C40.8807 63.6887 40.8561 63.799 40.8589 63.9094C40.8618 64.0199 40.8919 64.1282 40.9477 64.2283C41.0035 64.3283 41.0838 64.4181 41.184 64.4926C41.2843 64.5671 41.4025 64.6247 41.5319 64.6623C41.6613 64.6998 41.7995 64.7165 41.9384 64.7114C42.0773 64.7063 42.2143 64.6795 42.3416 64.6325C42.4689 64.5855 42.5839 64.5193 42.6801 64.4376C42.7764 64.3559 42.8519 64.2604 42.9025 64.1564L52.2985 44.928C52.3481 44.8226 52.3711 44.7109 52.3661 44.5994C52.3611 44.488 52.3282 44.379 52.2693 44.2788C52.2104 44.1787 52.1268 44.0894 52.0232 44.0162C51.9197 43.9429 51.7983 43.8872 51.6661 43.8523ZM67.3332 42.977C67.2037 42.9394 67.0656 42.9227 66.9267 42.9277C66.7877 42.9328 66.6507 42.9596 66.5234 43.0066C66.3961 43.0536 66.281 43.1198 66.1848 43.2015C66.0886 43.2833 66.0131 43.3789 65.9626 43.4829L56.556 62.7118C56.5054 62.8158 56.4809 62.9261 56.4837 63.0366C56.4865 63.147 56.5167 63.2553 56.5725 63.3554C56.6282 63.4554 56.7085 63.5453 56.8088 63.6197C56.909 63.6942 57.0272 63.7518 57.1567 63.7894C57.2861 63.8269 57.4242 63.8436 57.5631 63.8385C57.7021 63.8334 57.8391 63.8066 57.9664 63.7596C58.0936 63.7126 58.2087 63.6464 58.3049 63.5647C58.4011 63.483 58.4767 63.3875 58.5273 63.2835L67.9233 44.0552C68.0263 43.8462 68.022 43.6154 67.9114 43.4133C67.8008 43.2113 67.5929 43.0544 67.3332 42.977ZM59.4944 43.4149C59.365 43.3773 59.2268 43.3606 59.0879 43.3657C58.9489 43.3707 58.8119 43.3975 58.6846 43.4445C58.5573 43.4915 58.4422 43.5577 58.346 43.6395C58.2498 43.7212 58.1743 43.8168 58.1238 43.9208L53.4253 53.5266C53.3232 53.7366 53.3291 53.968 53.4418 54.1701C53.5544 54.3722 53.7646 54.5283 54.026 54.6041C54.2874 54.6799 54.5786 54.6692 54.8357 54.5744C55.0927 54.4795 55.2945 54.3082 55.3966 54.0983L60.0946 44.4841C60.1936 44.2753 60.1861 44.0459 60.0738 43.8458C59.9614 43.6456 59.7532 43.4908 59.4944 43.4149Z" fill="#B3E5FC" />
  <path d="M73.2546 26.3036C72.9954 22.1408 71.1703 18.2338 68.1507 15.3776C65.131 12.5213 61.1437 10.9304 57 10.9286C56.2376 10.9285 55.4762 10.9816 54.7211 11.0873C53.003 7.75194 50.4092 4.95468 47.2218 2.99983C44.0343 1.04498 40.3753 0.00741582 36.6429 0C36.4335 0 36.2075 0.00136638 36.0631 0.013661C31.9517 0.118176 27.9692 1.47991 24.6453 3.91781C21.3213 6.35571 18.8133 9.75428 17.4546 13.6617C14.6092 13.7148 11.8979 14.8891 9.9031 16.9323C7.9083 18.9755 6.78905 21.7246 6.78574 24.5893C6.78596 25.0075 6.81029 25.4253 6.85862 25.8406C4.80916 26.8584 3.08188 28.4308 1.87045 30.3813C0.659023 32.3319 0.0113422 34.5836 2.9555e-05 36.8839C-0.00473398 39.0484 0.566408 41.1747 1.65411 43.0419C1.77392 43.2467 1.94479 43.4165 2.14981 43.5344C2.35483 43.6524 2.58689 43.7144 2.82302 43.7143H18.1315C18.4547 43.7143 18.7674 43.5981 19.0132 43.3867C19.259 43.1753 19.4217 42.8825 19.472 42.561C19.8637 40.072 21.1248 37.8054 23.0286 36.1687C24.9323 34.5321 27.3537 33.6329 29.8573 33.6329C32.3609 33.6329 34.7823 34.5321 36.686 36.1687C38.5898 37.8054 39.8509 40.072 40.2426 42.561C40.2929 42.8825 40.4556 43.1753 40.7014 43.3867C40.9472 43.5981 41.2598 43.7143 41.5831 43.7143H78.3617C78.58 43.7144 78.7951 43.6614 78.9887 43.5599C79.1823 43.4584 79.3487 43.3114 79.4737 43.1312C80.7492 41.3013 81.4319 39.1194 81.4286 36.8839C81.4196 34.459 80.6125 32.1053 79.1336 30.191C77.6547 28.2767 75.5873 26.9097 73.2546 26.3036Z" fill="#9CD5F2" />
  <path d="M43.5037 43.8242C43.4787 43.3365 43.4299 42.8503 43.3575 42.3678C42.8701 39.1586 41.3 36.236 38.9296 34.1259C36.5592 32.0158 33.5441 30.8567 30.4268 30.8571C27.3095 30.8575 24.2947 32.0175 21.9248 34.1282C19.5549 36.239 17.9855 39.162 17.499 42.3713C17.4271 42.8527 17.3785 43.3377 17.3534 43.8242C15.2836 44.6035 13.4946 46.0287 12.2299 47.9059C10.9652 49.783 10.2863 52.0209 10.2857 54.3146C10.2857 54.6858 10.4272 55.0418 10.679 55.3043C10.9309 55.5668 11.2724 55.7143 11.6286 55.7143H49.2286C49.5847 55.7143 49.9263 55.5668 50.1781 55.3043C50.4299 55.0418 50.5714 54.6858 50.5714 54.3146C50.5708 52.0209 49.892 49.783 48.6273 47.9059C47.3626 46.0287 45.5735 44.6035 43.5037 43.8242Z" fill="#B2EBF2" />
</svg>
  