<svg width="92" height="84" viewBox="0 0 92 84" fill="none" xmlns="http://www.w3.org/2000/svg">
  <path d="M51.941 4.0059C51.941 4.0059 51.941 1.90735e-06 55.9469 1.90735e-06C59.9528 1.90735e-06 59.9528 4.0059 59.9528 4.0059V8.0118C59.9528 8.0118 59.9528 12.0177 55.9469 12.0177C51.941 12.0177 51.941 8.0118 51.941 8.0118V4.0059Z" fill="#FFAC33" />
  <path d="M87.9941 32.0472C87.9941 32.0472 92 32.0472 92 36.0531C92 40.059 87.9941 40.059 87.9941 40.059H83.9882C83.9882 40.059 79.9823 40.059 79.9823 36.0531C79.9823 32.0472 83.9882 32.0472 83.9882 32.0472H87.9941Z" fill="#FFAC33" />
  <path d="M27.9056 32.0472C27.9056 32.0472 31.9115 32.0472 31.9115 36.0531C31.9115 40.059 27.9056 40.059 27.9056 40.059H23.8997C23.8997 40.059 19.8938 40.059 19.8938 36.0531C19.8938 32.0472 23.8997 32.0472 23.8997 32.0472H27.9056Z" fill="#FFAC33" />
  <path d="M38.1627 14.6096C38.1627 14.6096 40.9949 17.4418 38.1627 20.274C35.3306 23.1061 32.4984 20.274 32.4984 20.274L29.6642 17.4418C29.6642 17.4418 26.832 14.6096 29.6642 11.7755C32.4984 8.94329 35.3306 11.7755 35.3306 11.7755L38.1627 14.6096Z" fill="#FFAC33" />
  <path d="M80.2247 56.6694C80.2247 56.6694 83.0568 59.5016 80.2247 62.3338C77.3925 65.166 74.5603 62.3338 74.5603 62.3338L71.7282 59.5016C71.7282 59.5016 68.896 56.6694 71.7282 53.8373C74.5603 51.0051 77.3925 53.8373 77.3925 53.8373L80.2247 56.6694Z" fill="#FFAC33" />
  <path d="M79.3974 20.2718C79.3974 20.2718 76.5653 23.1039 73.7331 20.2718C70.9009 17.4396 73.7331 14.6074 73.7331 14.6074L76.5653 11.7753C76.5653 11.7753 79.3974 8.94309 82.2296 11.7753C85.0618 14.6074 82.2296 17.4396 82.2296 17.4396L79.3974 20.2718Z" fill="#FFAC33" />
  <path d="M37.3355 62.3338C37.3355 62.3338 34.5033 65.166 31.6712 62.3338C28.839 59.5016 31.6712 56.6694 31.6712 56.6694L34.5033 53.8373C34.5033 53.8373 37.3355 51.0051 40.1677 53.8373C42.9998 56.6694 40.1677 59.5016 40.1677 59.5016L37.3355 62.3338Z" fill="#FFAC33" />
  <path d="M51.941 64.0944C51.941 64.0944 51.941 60.0885 55.9469 60.0885C59.9528 60.0885 59.9528 64.0944 59.9528 64.0944V68.1003C59.9528 68.1003 59.9528 72.1062 55.9469 72.1062C51.941 72.1062 51.941 68.1003 51.941 68.1003V64.0944Z" fill="#FFAC33" />
  <path d="M75.9764 36.0531C75.9764 24.9908 67.0072 16.0236 55.9469 16.0236C44.8846 16.0236 35.9174 24.9908 35.9174 36.0531C35.9174 47.1134 44.8846 56.0826 55.9469 56.0826C67.0072 56.0826 75.9764 47.1134 75.9764 36.0531Z" fill="#FFAC33" />
  <path d="M65.1821 45.7398C65.1932 45.5918 65.1987 45.4444 65.1988 45.2975C65.1983 43.7348 64.5766 42.2311 63.4605 41.0925C62.3443 39.9539 60.8176 39.266 59.191 39.1689C58.4006 37.1727 57.0301 35.4357 55.2417 34.1635C53.4533 32.8913 51.3221 32.1373 49.1006 31.9909C46.8791 31.8445 44.6604 32.3117 42.7073 33.3373C40.7542 34.3628 39.1486 35.9037 38.0807 37.7774C37.7378 37.7395 37.393 37.7202 37.0478 37.7195C35.6666 37.7152 34.3017 38.005 33.0516 38.5679C31.8014 39.1309 30.6972 39.953 29.8187 40.9749C29.676 41.141 29.5874 41.3437 29.5638 41.5577C29.5403 41.7717 29.5829 41.9877 29.6862 42.1787C29.7896 42.3697 29.9492 42.5274 30.1453 42.6322C30.3413 42.737 30.5652 42.7842 30.789 42.768C30.9098 42.7594 31.039 42.76 31.1608 42.7605C34.0223 42.7663 36.8217 43.5605 39.2258 45.0486C41.6298 46.5367 43.5371 48.656 44.7205 51.1542C44.828 51.3814 45.013 51.5668 45.2451 51.6798C45.4771 51.7927 45.7424 51.8265 45.9972 51.7756C48.0019 51.3767 50.0815 51.4994 52.0201 52.1311C53.9586 52.7627 55.6856 53.8803 57.0218 55.3678C57.1293 55.4884 57.2628 55.5852 57.4131 55.6516C57.5633 55.7179 57.7268 55.7523 57.8923 55.7522H66.9974C67.1974 55.7522 67.3939 55.7021 67.5673 55.6067C67.7408 55.5113 67.8852 55.374 67.9861 55.2085C68.6205 54.1671 68.9551 52.9828 68.9558 51.7767C68.9501 50.5383 68.5967 49.3241 67.9327 48.2618C67.2687 47.1996 66.3185 46.3284 65.1821 45.7398V45.7398Z" fill="#7CC9F2" />
  <path d="M62.0907 62.8023C61.873 59.3337 60.3401 56.0782 57.804 53.6983C55.2679 51.3183 51.9191 49.9927 48.4389 49.9911C47.7987 49.9911 47.1591 50.0353 46.525 50.1234C45.082 47.3442 42.9035 45.0134 40.2265 43.3845C37.5495 41.7557 34.4764 40.8911 31.3416 40.8849C31.1657 40.8849 30.976 40.8861 30.8547 40.8963C27.4016 40.9834 24.0569 42.1181 21.2652 44.1494C18.4735 46.1808 16.3671 49.0127 15.226 52.2685C12.8362 52.3128 10.5591 53.2913 8.88369 54.9937C7.20831 56.6962 6.26829 58.9869 6.26551 61.3739C6.2657 61.7223 6.28613 62.0705 6.32672 62.4165C4.60544 63.2646 3.15475 64.5748 2.13731 66.2001C1.11987 67.8254 0.575902 69.7016 0.566401 71.6184C0.5624 73.4219 1.04208 75.1936 1.95562 76.7495C2.05624 76.9201 2.19974 77.0616 2.37193 77.1599C2.54412 77.2581 2.73902 77.3098 2.93735 77.3097H15.7944C16.066 77.3097 16.3286 77.2129 16.535 77.0368C16.7414 76.8606 16.878 76.6166 16.9203 76.3488C17.2493 74.2748 18.3085 72.3861 19.9074 71.0224C21.5063 69.6587 23.5399 68.9095 25.6426 68.9095C27.7453 68.9095 29.779 69.6587 31.3779 71.0224C32.9767 72.3861 34.0359 74.2748 34.3649 76.3488C34.4072 76.6166 34.5438 76.8606 34.7502 77.0368C34.9567 77.2129 35.2193 77.3097 35.4908 77.3097H66.38C66.5633 77.3098 66.744 77.2657 66.9066 77.1811C67.0692 77.0965 67.2089 76.974 67.314 76.8239C68.3852 75.2991 68.9586 73.481 68.9558 71.6184C68.9482 69.5978 68.2704 67.6366 67.0283 66.0415C65.7862 64.4464 64.0499 63.3073 62.0907 62.8023Z" fill="#9CD5F2" />
  <path d="M40.8383 72.6216C40.8125 72.1548 40.7621 71.6896 40.6872 71.2278C40.1837 68.1567 38.5612 65.3599 36.1118 63.3406C33.6624 61.3212 30.5468 60.212 27.3256 60.2124C24.1044 60.2128 20.9892 61.3228 18.5403 63.3428C16.0914 65.3627 14.4697 68.1599 13.967 71.2311C13.8926 71.6919 13.8424 72.156 13.8166 72.6216C11.6778 73.3673 9.82908 74.7312 8.52223 76.5276C7.21537 78.324 6.51388 80.4655 6.51328 82.6606C6.51328 83.0158 6.65947 83.3565 6.9197 83.6077C7.17993 83.8589 7.53287 84 7.90089 84H46.754C47.122 84 47.475 83.8589 47.7352 83.6077C47.9954 83.3565 48.1416 83.0158 48.1416 82.6606C48.141 80.4655 47.4395 78.324 46.1327 76.5276C44.8258 74.7312 42.9771 73.3673 40.8383 72.6216V72.6216Z" fill="#B2EBF2" />
</svg>
  