<svg width="84" height="84" viewBox="0 0 84 84" fill="none" xmlns="http://www.w3.org/2000/svg">
  <path
    d="M46.6667 79.3333C46.6667 79.3333 46.6667 84 42 84C37.3334 84 37.3334 79.3333 37.3334
79.3333V74.6667C37.3334 74.6667 37.3334 70 42 70C46.6667 70 46.6667 74.6667 46.6667
74.6667V79.3333Z"
    fill="#FFAC33" />
  <path
    d="M4.66667 46.6666C4.66667 46.6666 0 46.6666 0 42C0
37.3333 4.66667 37.3333 4.66667 37.3333H9.33333C9.33333 37.3333 14 37.3333 14 42C14 46.6666 9.33333
46.6666 9.33333 46.6666H4.66667Z"
    fill="#FFAC33" />
  <path
    d="M74.6667 46.6666C74.6667 46.6666 70
46.6666 70 42C70 37.3333 74.6667 37.3333 74.6667 37.3333H79.3333C79.3333 37.3333 84 37.3333 84 42C84
46.6666 79.3333 46.6666 79.3333 46.6666H74.6667Z"
    fill="#FFAC33" />
  <path
    d="M62.7176
66.9806C62.7176 66.9806 59.4183 63.6812 62.7176 60.3819C66.017 57.0826 69.3163 60.3819 69.3163
60.3819L72.618 63.6812C72.618 63.6812 75.9173 66.9806 72.618 70.2822C69.3163 73.5816 66.017 70.2822
66.017 70.2822L62.7176 66.9806Z"
    fill="#FFAC33" />
  <path
    d="M13.7177 17.9831C13.7177 17.9831
10.4183 14.6837 13.7177 11.3844C17.017 8.08507 20.3163 11.3844 20.3163 11.3844L23.6157
14.6837C23.6157 14.6837 26.915 17.9831 23.6157 21.2824C20.3163 24.5817 17.017 21.2824 17.017
21.2824L13.7177 17.9831Z"
    fill="#FFAC33" />
  <path
    d="M14.6813 60.3844C14.6813 60.3844 17.9806
57.0851 21.28 60.3844C24.5793 63.6837 21.28 66.9831 21.28 66.9831L17.9806 70.2824C17.9806 70.2824
14.6813 73.5817 11.382 70.2824C8.08263 66.9831 11.382 63.6837 11.382 63.6837L14.6813 60.3844Z"
    fill="#FFAC33" />
  <path
    d="M63.6813 11.3844C63.6813 11.3844 66.9806 8.08507 70.28 11.3844C73.5793
14.6837 70.28 17.9831 70.28 17.9831L66.9806 21.2824C66.9806 21.2824 63.6813 24.5817 60.382
21.2824C57.0826 17.9831 60.382 14.6837 60.382 14.6837L63.6813 11.3844Z"
    fill="#FFAC33" />
  <path
    d="M46.6667 9.33333C46.6667 9.33333 46.6667 14 42 14C37.3334 14 37.3334 9.33333 37.3334
9.33333V4.66667C37.3334 4.66667 37.3334 0 42 0C46.6667 0 46.6667 4.66667 46.6667 4.66667V9.33333Z"
    fill="#FFAC33" />
  <path
    d="M18.6666 42C18.6666 54.887 29.1153 65.3334 42 65.3334C54.887 65.3334
65.3333 54.887 65.3333 42C65.3333 29.1154 54.887 18.6667 42 18.6667C29.1153 18.6667 18.6666 29.1154
18.6666 42Z"
    fill="#FFAC33" />
</svg>
  