<svg width="92" height="84" viewBox="0 0 92 84" fill="none" xmlns="http://www.w3.org/2000/svg">
  <path d="M51.3746 4.0059C51.3746 4.0059 51.3746 1.90735e-06 55.3805 1.90735e-06C59.3864 1.90735e-06 59.3864 4.0059 59.3864 4.0059V8.0118C59.3864 8.0118 59.3864 12.0177 55.3805 12.0177C51.3746 12.0177 51.3746 8.0118 51.3746 8.0118V4.0059Z" fill="#FFAC33" />
  <path d="M87.4278 32.0472C87.4278 32.0472 91.4337 32.0472 91.4337 36.0531C91.4337 40.059 87.4278 40.059 87.4278 40.059H83.4219C83.4219 40.059 79.416 40.059 79.416 36.0531C79.416 32.0472 83.4219 32.0472 83.4219 32.0472H87.4278Z" fill="#FFAC33" />
  <path d="M27.3393 32.0472C27.3393 32.0472 31.3452 32.0472 31.3452 36.0531C31.3452 40.059 27.3393 40.059 27.3393 40.059H23.3334C23.3334 40.059 19.3275 40.059 19.3275 36.0531C19.3275 32.0472 23.3334 32.0472 23.3334 32.0472H27.3393Z" fill="#FFAC33" />
  <path d="M37.5964 14.6096C37.5964 14.6096 40.4285 17.4418 37.5964 20.274C34.7642 23.1061 31.932 20.274 31.932 20.274L29.0979 17.4418C29.0979 17.4418 26.2657 14.6096 29.0979 11.7755C31.932 8.94328 34.7642 11.7755 34.7642 11.7755L37.5964 14.6096Z" fill="#FFAC33" />
  <path d="M79.6583 56.6694C79.6583 56.6694 82.4905 59.5016 79.6583 62.3338C76.8262 65.166 73.994 62.3338 73.994 62.3338L71.1618 59.5016C71.1618 59.5016 68.3296 56.6694 71.1618 53.8373C73.994 51.0051 76.8262 53.8373 76.8262 53.8373L79.6583 56.6694Z" fill="#FFAC33" />
  <path d="M78.8311 20.2718C78.8311 20.2718 75.9989 23.1039 73.1668 20.2718C70.3346 17.4396 73.1668 14.6074 73.1668 14.6074L75.9989 11.7753C75.9989 11.7753 78.8311 8.94309 81.6633 11.7753C84.4954 14.6074 81.6633 17.4396 81.6633 17.4396L78.8311 20.2718Z" fill="#FFAC33" />
  <path d="M36.7692 62.3338C36.7692 62.3338 33.937 65.166 31.1048 62.3338C28.2726 59.5016 31.1048 56.6694 31.1048 56.6694L33.937 53.8373C33.937 53.8373 36.7692 51.0051 39.6013 53.8373C42.4335 56.6694 39.6013 59.5016 39.6013 59.5016L36.7692 62.3338Z" fill="#FFAC33" />
  <path d="M51.3746 64.0944C51.3746 64.0944 51.3746 60.0885 55.3805 60.0885C59.3864 60.0885 59.3864 64.0944 59.3864 64.0944V68.1003C59.3864 68.1003 59.3864 72.1062 55.3805 72.1062C51.3746 72.1062 51.3746 68.1003 51.3746 68.1003V64.0944Z" fill="#FFAC33" />
  <path d="M75.4101 36.0531C75.4101 24.9908 66.4409 16.0236 55.3806 16.0236C44.3183 16.0236 35.3511 24.9908 35.3511 36.0531C35.3511 47.1134 44.3183 56.0826 55.3806 56.0826C66.4409 56.0826 75.4101 47.1134 75.4101 36.0531Z" fill="#FFAC33" />
  <path d="M61.5243 62.8023C61.3066 59.3337 59.7738 56.0782 57.2377 53.6983C54.7015 51.3183 51.3527 49.9927 47.8726 49.9911C47.2323 49.9911 46.5928 50.0353 45.9586 50.1234C44.5156 47.3442 42.3372 45.0134 39.6601 43.3845C36.9831 41.7557 33.91 40.8911 30.7752 40.8849C30.5994 40.8849 30.4096 40.8861 30.2883 40.8963C26.8352 40.9834 23.4905 42.1181 20.6988 44.1494C17.9071 46.1808 15.8007 49.0127 14.6596 52.2685C12.2698 52.3128 9.99269 53.2913 8.31732 54.9937C6.64194 56.6962 5.70192 58.9869 5.69914 61.3739C5.69932 61.7223 5.71976 62.0705 5.76035 62.4165C4.03907 63.2646 2.58838 64.5748 1.57094 66.2001C0.553493 67.8254 0.00952595 69.7016 2.48223e-05 71.6184C-0.00397593 73.4219 0.475709 75.1936 1.38924 76.7495C1.48986 76.9201 1.63337 77.0616 1.80556 77.1599C1.97775 77.2581 2.17265 77.3098 2.37097 77.3097H15.2281C15.4996 77.3097 15.7622 77.2129 15.9686 77.0368C16.175 76.8606 16.3117 76.6166 16.354 76.3488C16.6829 74.2748 17.7421 72.3861 19.341 71.0224C20.9399 69.6587 22.9736 68.9095 25.0762 68.9095C27.1789 68.9095 29.2126 69.6587 30.8115 71.0224C32.4104 72.3861 33.4695 74.2748 33.7985 76.3488C33.8408 76.6166 33.9775 76.8606 34.1839 77.0368C34.3903 77.2129 34.6529 77.3097 34.9244 77.3097H65.8136C65.9969 77.3098 66.1776 77.2657 66.3402 77.1811C66.5028 77.0965 66.6426 76.974 66.7476 76.8239C67.8188 75.2991 68.3922 73.481 68.3894 71.6184C68.3818 69.5978 67.704 67.6366 66.4619 66.0415C65.2198 64.4464 63.4835 63.3073 61.5243 62.8023Z" fill="#9CD5F2" />
  <path d="M40.2719 72.6216C40.2461 72.1548 40.1957 71.6896 40.1208 71.2278C39.6173 68.1567 37.9948 65.3599 35.5454 63.3406C33.096 61.3212 29.9804 60.212 26.7592 60.2124C23.5381 60.2128 20.4228 61.3228 17.9739 63.3428C15.525 65.3627 13.9033 68.1599 13.4006 71.2311C13.3263 71.6919 13.2761 72.156 13.2502 72.6216C11.1114 73.3673 9.2627 74.7312 7.95585 76.5276C6.64899 78.324 5.9475 80.4655 5.9469 82.6606C5.9469 83.0158 6.09309 83.3565 6.35332 83.6077C6.61355 83.8589 6.96649 84 7.33451 84H46.1876C46.5556 84 46.9086 83.8589 47.1688 83.6077C47.429 83.3565 47.5752 83.0158 47.5752 82.6606C47.5746 80.4655 46.8731 78.324 45.5663 76.5276C44.2594 74.7312 42.4107 73.3673 40.2719 72.6216Z" fill="#B2EBF2" />
</svg>
  