<svg width="92" height="84" viewBox="0 0 92 84" fill="none" xmlns="http://www.w3.org/2000/svg">
  <path d="M75.41 36.0531C75.41 24.9908 66.4408 16.0236 55.3805 16.0236C44.3182 16.0236 35.351 24.9908 35.351 36.0531C35.351 47.1134 44.3182 56.0826 55.3805 56.0826C66.4408 56.0826 75.41 47.1134 75.41 36.0531Z" fill="#48484A" />
  <path d="M64.6157 45.7398C64.6268 45.5918 64.6324 45.4444 64.6325 45.2975C64.6319 43.7348 64.0103 42.2311 62.8941 41.0925C61.7779 39.9539 60.2512 39.266 58.6247 39.1689C57.8343 37.1727 56.4637 35.4357 54.6753 34.1635C52.887 32.8913 50.7558 32.1373 48.5342 31.9909C46.3127 31.8445 44.094 32.3117 42.1409 33.3373C40.1878 34.3628 38.5822 35.9037 37.5144 37.7774C37.1715 37.7395 36.8266 37.7202 36.4814 37.7195C35.1003 37.7152 33.7354 38.005 32.4852 38.5679C31.235 39.1309 30.1308 39.953 29.2523 40.9749C29.1096 41.141 29.021 41.3437 28.9975 41.5577C28.9739 41.7717 29.0165 41.9877 29.1198 42.1787C29.2232 42.3697 29.3828 42.5274 29.5789 42.6322C29.7749 42.737 29.9988 42.7842 30.2226 42.768C30.3434 42.7594 30.4726 42.76 30.5945 42.7605C33.4559 42.7663 36.2554 43.5605 38.6594 45.0486C41.0634 46.5367 42.9707 48.656 44.1541 51.1542C44.2616 51.3814 44.4466 51.5668 44.6787 51.6798C44.9108 51.7927 45.176 51.8265 45.4308 51.7756C47.4355 51.3767 49.5151 51.4994 51.4537 52.1311C53.3923 52.7627 55.1193 53.8803 56.4555 55.3678C56.563 55.4884 56.6964 55.5852 56.8467 55.6516C56.997 55.7179 57.1605 55.7523 57.3259 55.7522H66.431C66.631 55.7522 66.8275 55.7021 67.0009 55.6067C67.1744 55.5113 67.3188 55.374 67.4198 55.2085C68.0541 54.1671 68.3888 52.9828 68.3894 51.7767C68.3837 50.5383 68.0304 49.3241 67.3663 48.2618C66.7023 47.1996 65.7522 46.3284 64.6157 45.7398Z" fill="#7CC9F2" />
  <path d="M61.5243 62.8023C61.3066 59.3337 59.7738 56.0782 57.2377 53.6983C54.7015 51.3183 51.3527 49.9927 47.8726 49.9911C47.2323 49.9911 46.5928 50.0353 45.9586 50.1234C44.5156 47.3442 42.3372 45.0134 39.6601 43.3845C36.9831 41.7557 33.91 40.8911 30.7752 40.8849C30.5994 40.8849 30.4096 40.8861 30.2883 40.8963C26.8352 40.9834 23.4905 42.1181 20.6988 44.1494C17.9071 46.1808 15.8007 49.0127 14.6596 52.2685C12.2698 52.3128 9.99269 53.2913 8.31732 54.9937C6.64194 56.6962 5.70192 58.9869 5.69914 61.3739C5.69932 61.7223 5.71976 62.0705 5.76035 62.4165C4.03907 63.2646 2.58838 64.5748 1.57094 66.2001C0.553493 67.8254 0.00952595 69.7016 2.48223e-05 71.6184C-0.00397593 73.4219 0.475709 75.1936 1.38924 76.7495C1.48986 76.9201 1.63337 77.0616 1.80556 77.1599C1.97775 77.2581 2.17265 77.3098 2.37097 77.3097H15.2281C15.4996 77.3097 15.7622 77.2129 15.9686 77.0368C16.175 76.8606 16.3117 76.6166 16.354 76.3488C16.6829 74.2748 17.7421 72.3861 19.341 71.0224C20.9399 69.6587 22.9736 68.9095 25.0762 68.9095C27.1789 68.9095 29.2126 69.6587 30.8115 71.0224C32.4104 72.3861 33.4695 74.2748 33.7985 76.3488C33.8408 76.6166 33.9775 76.8606 34.1839 77.0368C34.3903 77.2129 34.6529 77.3097 34.9244 77.3097H65.8136C65.9969 77.3098 66.1776 77.2657 66.3402 77.1811C66.5028 77.0965 66.6426 76.974 66.7476 76.8239C67.8188 75.2991 68.3922 73.481 68.3894 71.6184C68.3818 69.5978 67.704 67.6366 66.4619 66.0415C65.2198 64.4464 63.4835 63.3073 61.5243 62.8023Z" fill="#9CD5F2" />
  <path d="M40.2719 72.6216C40.2461 72.1548 40.1957 71.6896 40.1208 71.2278C39.6173 68.1567 37.9948 65.3599 35.5454 63.3406C33.096 61.3212 29.9804 60.212 26.7592 60.2124C23.5381 60.2128 20.4228 61.3228 17.9739 63.3428C15.525 65.3627 13.9033 68.1599 13.4006 71.2311C13.3263 71.6919 13.2761 72.156 13.2502 72.6216C11.1114 73.3673 9.2627 74.7312 7.95585 76.5276C6.64899 78.324 5.9475 80.4655 5.9469 82.6606C5.9469 83.0158 6.09309 83.3565 6.35332 83.6077C6.61355 83.8589 6.96649 84 7.33451 84H46.1876C46.5556 84 46.9086 83.8589 47.1688 83.6077C47.429 83.3565 47.5752 83.0158 47.5752 82.6606C47.5746 80.4655 46.8731 78.324 45.5663 76.5276C44.2594 74.7312 42.4107 73.3673 40.2719 72.6216V72.6216Z" fill="#B2EBF2" />
</svg>
  